# xmcd CD database file
#
# Track frame offsets:
#	150
#	24178
#	36369
#	55526
#	72426
#	85517
#	106056
#	127855
#	146913
#	169840
#	198305
#
# Disc length: 4440 seconds
#
# Revision: 0
# Processed by: cddbd v1.5.2PL0 Copyright (c) Steve Scherf et al.
# Submitted via: CDex 1.70beta2
#
DISCID=8911560b
DTITLE=Horne, Lena - Seasons Of A Life
DYEAR=2006
DGENRE=Jazz
TTITLE0=Black Is
TTITLE1=Maybe
TTITLE2=I've Got To Have You
TTITLE3=I'll Always Leave The Door A Little Open
TTITLE4=You're The One
TTITLE5=Something To Live For
TTITLE6=Chelsea Bridge
TTITLE7=Singin' In The Rain
TTITLE8=Willow Weep For Me
TTITLE9=Stormy Weather
TTITLE10=Data Track
EXTD=YEAR: 2006
EXTT0=
EXTT1=
EXTT2=
EXTT3=
EXTT4=
EXTT5=
EXTT6=
EXTT7=
EXTT8=
EXTT9=
EXTT10=
PLAYORDER=
